{"title":"Story.of.Wine.2008.DVDRip.XviD.AC3-BAUM","uid":6134947,"size":1467136672,"categoryP":"video","categoryS":"movies","magnet":"?xt=urn:btih:a015f63a5048595f648f6d6ff2a8068251bef945&amp;dn=Story.of.Wine.2008.DVDRip.XviD.AC3-BAUM&amp;tr=udp%3A%2F%2Ftracker.openbittorrent.com%3A80&amp;tr=udp%3A%2F%2Fopen.demonii.com%3A1337&amp;tr=udp%3A%2F%2Ftracker.coppersurfer.tk%3A6969&amp;tr=udp%3A%2F%2Fexodus.desync.com%3A6969","seeders":0,"leechers":1,"uploader":null,"files":-1,"time":1296265380,"description":"Title: Story of Wine (2008)\nYear: 2008\nCountry: South Korea\nLanguage: Korean\nFilm Genre: Drama | Romance\nSubtitles: None\nDirector: Cheol-ha Lee\nCast: Lee Ki-woo, Grina Park, Marcos Benjamin Lee, Seo Hyeon-jin, No Min-woo, Ismail Ouaiahou\nIMDB Link: http://www.imdb.com/title/tt1646959/\n\n\n\nPLOT or SYNOPSIS\nAt the one year Anniversary Party for the wine bar 'Story of Wine', Min-sung made an exclusive wine list specifically paired with a unique story that represents the qualities of each wine. Love, lost, friendship, every bottle has a story.\n\nFeatures Sunny from SNSD (Girls Generation) performing her new OST &quot;Finally Now&quot;.\n\n\nGeneral\nComplete name : Story.of.Wine.2008.DVDRip.XviD.AC3-BAUM.avi\nFormat : AVI\nFormat/Info : Audio Video Interleave\nFormat profile : OpenDML\nFile size : 1.37 GiB\nDuration : 1h 35mn\nOverall bit rate : 2 043 Kbps\nWriting application : AVI-Mux GUI 1.17.8.3, Feb 16 201019:42:50\n\nVideo #0\nID : 0\nFormat : MPEG-4 Visual\nFormat profile : Advanced Simple@L5\nFormat settings, BVOP : Yes\nFormat settings, QPel : No\nFormat settings, GMC : No warppoints\nFormat settings, Matrix : Default (H.263)\nCodec ID : XVID\nCodec ID/Hint : XviD\nDuration : 1h 35mn\nBit rate : 1 589 Kbps\nWidth : 720 pixels\nHeight : 400 pixels\nDisplay aspect ratio : 16:9\nFrame rate : 23.976 fps\nColor space : YUV\nChroma subsampling : 4:2:0\nBit depth : 8 bits\nScan type : Progressive\nBits/(Pixel*Frame) : 0.230\nStream size : 1.06 GiB (78%)\nWriting library : XviD 1.2.1 (UTC 2008-12-04)\n\nAudio #1\nID : 1\nFormat : AC-3\nFormat/Info : Audio Coding 3\nMode extension : CM (complete main)\nCodec ID : 2000\nDuration : 1h 35mn\nBit rate mode : Constant\nBit rate : 448 Kbps\nChannel(s) : 2 channels\nChannel positions : Front: L R\nSampling rate : 48.0 KHz\nBit depth : 16 bits\nStream size : 307 MiB (22%)\nAlignment : Aligned on interleaves\nInterleave, duration : 64 ms (1.53 video frames)\nInterleave, preload duration : 192 ms\nTitle : VTS_01_1 T81 2_0ch 448Kbps DELAY 0ms","torrent":{"xt":"urn:btih:a015f63a5048595f648f6d6ff2a8068251bef945","amp;dn":"Story.of.Wine.2008.DVDRip.XviD.AC3-BAUM","amp;tr":["udp%3A%2F%2Ftracker.openbittorrent.com%3A80","udp%3A%2F%2Fopen.demonii.com%3A1337","udp%3A%2F%2Ftracker.coppersurfer.tk%3A6969","udp%3A%2F%2Fexodus.desync.com%3A6969"],"infoHash":"a015f63a5048595f648f6d6ff2a8068251bef945","infoHashBuffer":{"type":"Buffer","data":[160,21,246,58,80,72,89,95,100,143,109,111,242,168,6,130,81,190,249,69]},"announce":[],"urlList":[]}}